<svg xmlns="http://www.w3.org/2000/svg" xmlns:svg="http://www.w3.org/2000/svg" id="Layer_1" width="1909.713" height="1908.718" data-name="Layer 1" version="1.1" viewBox="0 0 1145.828 1145.231"><metadata id="metadata11"/><path style="color:#000;font-style:normal;font-variant:normal;font-weight:400;font-stretch:normal;font-size:medium;line-height:normal;font-family:sans-serif;font-variant-ligatures:normal;font-variant-position:normal;font-variant-caps:normal;font-variant-numeric:normal;font-variant-alternates:normal;font-feature-settings:normal;text-indent:0;text-align:start;text-decoration:none;text-decoration-line:none;text-decoration-style:solid;text-decoration-color:#000;letter-spacing:normal;word-spacing:normal;text-transform:none;writing-mode:lr-tb;direction:ltr;text-orientation:mixed;dominant-baseline:auto;baseline-shift:baseline;text-anchor:start;white-space:normal;shape-padding:0;clip-rule:nonzero;display:inline;overflow:visible;visibility:visible;opacity:1;isolation:auto;mix-blend-mode:normal;color-interpolation:sRGB;color-interpolation-filters:linearRGB;solid-color:#000;solid-opacity:1;vector-effect:none;fill:#76b900;fill-opacity:1;fill-rule:nonzero;stroke:none;stroke-width:13.04999924;stroke-linecap:butt;stroke-linejoin:miter;stroke-miterlimit:4;stroke-dasharray:none;stroke-dashoffset:0;stroke-opacity:1;color-rendering:auto;image-rendering:auto;shape-rendering:auto;text-rendering:auto;enable-background:accumulate" id="path859" d="m 569.33845,536.03241 v 34.9084 H 283.71503 l -0.11426,-0.20392 -0.36386,0.20392 H 59.999996 v 13.05175 h 43.834564 l -43.834564,16.22812 v 21.8918 H 191.85351 l -86.96602,48.69668 -44.887494,0.0351 v 13.05 l 21.550779,-0.0158 -21.550779,12.06739 V 710.9031 L 108.29765,683.8574 326.67596,683.68865 234.60527,786.874 H 59.999996 v 13.05175 H 222.958 L 59.999996,982.55542 v 24.74478 l 509.338454,0.2953 0.5976,77.6354 h 13.04825 l 0.1992,-77.6284 501.5016,0.2901 0.011,-13.05182 -501.51213,-0.28827 -0.7968,-194.62676 h 329.2626 l 173.95313,194.48087 v -19.575 L 929.15738,799.92575 H 1085.6027 V 786.874 H 917.48375 l -92.64023,-103.57207 217.39218,-0.16875 43.367,24.29824 V 692.4742 l -16.7186,-9.36212 15.8116,-0.0123 -0.011,-13.05175 -39.0745,0.0299 -85.65466,-47.96543 h 125.64666 v -23.80254 l -37.067,-14.31738 h 36.153 V 570.94081 H 582.3867 v -34.9084 z m -428.93787,47.96015 h 119.52773 l -44.76972,25.06992 H 73.5123 Z m 146.23593,0 h 128.99707 l -22.36992,25.06992 H 241.86679 Z m 146.4873,0 h 136.21464 v 25.06992 H 410.75389 Z m 149.26289,0 h 136.12323 l 22.42266,25.06992 H 582.3867 Z m 153.62929,0 H 865.2943 l 44.74336,25.06992 H 758.4404 Z m 155.86698,0 H 1012.664 l 64.6225,25.06992 H 936.65094 Z m -673.32126,38.11992 h 163.0582 l -43.2914,48.51562 -206.69414,0.16173 z m 180.54667,0 h 170.23007 v 48.33633 l -213.50741,0.16523 z m 183.27832,0 h 170.21952 l 43.07519,48.16055 -213.29471,0.16523 z m 187.72557,0 h 163.2164 l 85.64413,47.98652 -205.79588,0.15996 z m 37.23574,61.20175 92.62793,103.55977 H 582.3867 V 683.49001 Z m -238.00956,0.18458 V 786.874 H 252.09374 L 344.17851,683.67458 Z M 240.44824,799.92575 H 569.33845 V 994.54369 L 67.050581,994.25542 Z"/><rect style="fill:#838383;fill-opacity:1;stroke-width:5.11638403;stroke-linecap:butt;stroke-miterlimit:3.79999995;stroke-dasharray:none" id="rect822-3" width="195.653" height="239.513" x="477.885" y="523.032" ry="1.525"/><circle id="circle4584" cx="570.346" cy="532.146" style="fill:#a6a6a6;fill-opacity:1;stroke:#76b000;stroke-width:0;stroke-linecap:butt;stroke-miterlimit:4;stroke-dasharray:none;stroke-opacity:1" r="97.65"/><rect style="fill:#cfcfcf;fill-opacity:1;stroke-width:7.83497667;stroke-linecap:butt;stroke-miterlimit:3.79999995;stroke-dasharray:none" id="rect822" width="636.752" height="172.581" x="257.607" y="745.742" ry="4.286"/><rect style="fill:#737373;fill-opacity:1;stroke-width:1.1609149;stroke-linecap:butt;stroke-miterlimit:3.79999995;stroke-dasharray:none" id="rect822-3-3-6" width="49.162" height="49.075" x="390.815" y="283.124" ry=".312"/><rect id="rect4665" width="304.957" height="195.3" x="23.521" y="682.654" ry="1.243" style="fill:#a6a6a6;fill-opacity:1;stroke-width:5.76801777;stroke-linecap:butt;stroke-miterlimit:3.79999995;stroke-dasharray:none" transform="rotate(-45)"/><rect style="fill:#cfcfcf;fill-opacity:1;stroke-width:5.53970814;stroke-linecap:butt;stroke-miterlimit:3.79999995;stroke-dasharray:none" id="rect822-3-3" width="281.293" height="195.3" x="522.782" y="209.987" ry="1.243"/><circle style="fill:#cfcfcf;fill-opacity:1;stroke:#76b000;stroke-width:0;stroke-linecap:butt;stroke-miterlimit:4;stroke-dasharray:none;stroke-opacity:1" id="circle4586" cx="526.399" cy="307.512" r="97.65"/><circle id="circle4588" cx="795.028" cy="307.621" style="fill:#cfcfcf;fill-opacity:1;stroke:#76b000;stroke-width:0;stroke-linecap:butt;stroke-miterlimit:4;stroke-dasharray:none;stroke-opacity:1" r="97.65"/><circle style="fill:#515151;fill-opacity:1;stroke:#76b000;stroke-width:0;stroke-linecap:butt;stroke-miterlimit:4;stroke-dasharray:none;stroke-opacity:1" id="path863-6" cx="570.346" cy="532.146" r="75.121"/><circle style="fill:#e3e3e3;fill-opacity:1;stroke:none;stroke-width:15.32400131;stroke-linecap:butt;stroke-miterlimit:4;stroke-dasharray:none;stroke-opacity:1" id="path863" cx="570.346" cy="532.146" r="51.227"/><circle style="fill:#515151;fill-opacity:1;stroke:#76b000;stroke-width:0;stroke-linecap:butt;stroke-miterlimit:4;stroke-dasharray:none;stroke-opacity:1" id="path863-6-7" cx="795.028" cy="307.621" r="75.121"/><circle style="fill:#e3e3e3;fill-opacity:1;stroke:none;stroke-width:15.32400131;stroke-linecap:butt;stroke-miterlimit:4;stroke-dasharray:none;stroke-opacity:1" id="path863-5" cx="795.028" cy="307.621" r="51.227"/><path style="fill:#ddd;fill-opacity:1;stroke:#76b000;stroke-width:0;stroke-linecap:butt;stroke-miterlimit:4;stroke-dasharray:none;stroke-opacity:1" id="circle4657" d="m 307.13261,208.84199 a 98.813012,98.813012 0 0 0 -69.79922,28.95469 l 18.19687,18.19863 a 73.058873,73.058873 0 0 1 51.60235,-21.40136 73.058873,73.058873 0 0 1 73.0582,73.05995 73.058873,73.058873 0 0 1 -73.0582,73.0582 73.058873,73.058873 0 0 1 -51.30352,-21.12539 l -18.22148,18.22148 a 98.813012,98.813012 0 0 0 69.525,28.65762 98.813012,98.813012 0 0 0 98.8119,-98.81191 98.813012,98.813012 0 0 0 -98.8119,-98.81191 z"/></svg>