<svg xmlns="http://www.w3.org/2000/svg" xmlns:svg="http://www.w3.org/2000/svg" id="svg838" width="15.863" height="24.568" version="1.1" viewBox="0 0 4.197 6.5"><metadata id="metadata835"/><g id="layer1" transform="translate(-40.028088,-83.507164)"><path id="rect1415" d="M 2.953125 0.9453125 C 1.8401789 0.9453125 0.9453125 1.8401789 0.9453125 2.953125 L 0.9453125 21.615234 C 0.9453125 22.728181 1.8401789 23.623047 2.953125 23.623047 C 4.0660711 23.623047 4.9628906 22.728181 4.9628906 21.615234 L 4.9628906 2.953125 C 4.9628906 1.8401789 4.0660711 0.9453125 2.953125 0.9453125 z M 7.9082031 0.9453125 C 6.795257 0.9453125 5.9003906 1.8401789 5.9003906 2.953125 L 5.9003906 21.615234 C 5.9003906 22.728181 6.795257 23.623047 7.9082031 23.623047 C 9.021153 23.623047 9.9179688 22.728181 9.9179688 21.615234 L 9.9179688 2.953125 C 9.9179688 1.8401789 9.021153 0.9453125 7.9082031 0.9453125 z M 12.908203 0.9453125 C 11.795257 0.9453125 10.900391 1.8401789 10.900391 2.953125 L 10.900391 21.615234 C 10.900391 22.728181 11.795257 23.623047 12.908203 23.623047 C 14.021149 23.623047 14.917969 22.728181 14.917969 21.615234 L 14.917969 2.953125 C 14.917969 1.8401789 14.021149 0.9453125 12.908203 0.9453125 z" transform="matrix(0.26458333,0,0,0.26458333,40.028088,83.507164)" style="fill:#fff;stroke-width:.755906"/></g></svg>