<svg xmlns="http://www.w3.org/2000/svg" xmlns:svg="http://www.w3.org/2000/svg" id="svg2935" width="64" height="64" fill="none" stroke="none" stroke-linecap="square" stroke-miterlimit="10" version="1.1" viewBox="0 0 64 64"><clipPath id="p.0"><path id="path2918" d="M 0,0 H 687.7192 V 688.5906 H 0 Z" clip-rule="nonzero"/></clipPath><g id="g2933" clip-path="url(#p.0)" transform="scale(0.09306124,0.09294347)"><path id="path2921" fill="#000" fill-opacity="0" fill-rule="evenodd" d="M 0,0 H 687.7192 V 688.5906 H 0 Z"/><path id="path2923" fill="#fff" fill-rule="evenodd" d="m 343.9884,644.53326 v 0 C 444.90777,644.47778 537.7323,589.64959 585.97296,501.60153 634.21362,413.55347 630.15765,306.36261 575.39954,222.16533 520.64135,137.96808 423.93569,90.22591 323.29728,97.70612 l 9.41812,125.10402 c 54.82898,-4.02927 107.5036,21.85082 137.32251,67.46927 29.81894,45.61844 32.01608,103.68387 5.72796,151.37634 -26.28811,47.69247 -76.85977,77.3891 -131.84009,77.41901 z"/><path id="path2925" fill="#fff" fill-rule="evenodd" d="M 343.85083,278.29736 182.71692,159.81367 343.17551,44.041514 Z"/><path id="path2927" fill="#fff" fill-rule="evenodd" d="m 75.009834,431.22272 v 0 c 8.343872,36.6029 24.174896,71.11075 46.509966,101.38055 l 102.31109,-74.48016 c -12.17221,-16.307 -20.80594,-34.91922 -25.36115,-54.67242 z"/><path id="path2929" fill="#fff" fill-rule="evenodd" d="M 91.0628,261.5953 C 76.924723,293.89599 69.19369,328.60235 68.293574,363.81152 l 125.851066,3.16693 c 0.49434,-19.11694 4.73781,-37.95804 12.49543,-55.47986 z"/><path id="path2931" fill="#fff" fill-rule="evenodd" d="m 169.78056,583.04803 v 0 c 32.04689,25.92322 69.55301,44.35638 109.74275,53.93543 l 29.6875,-122.85584 c -21.69495,-5.1116 -41.95383,-14.95972 -59.28741,-28.8204 z"/></g></svg>